# 3ds Max Wavefront OBJ Exporter v0.99 - (c)2007 guruware
# File Created: 04.12.2021 14:44:40

mtllib buro.mtl

#
# object Side_Table
#

v  -26.3253 16.6701 20.2179
v  -26.3253 16.6701 -20.5101
v  26.3253 16.6701 -20.5101
v  26.3253 16.6701 20.2179
v  -24.7837 31.9141 -19.5315
v  -24.7837 18.0416 -19.5315
v  24.6752 18.0416 -19.5315
v  24.6752 31.9141 -19.5315
v  -26.3253 43.8458 20.2179
v  -26.3253 33.2923 20.2179
v  26.3253 33.2923 20.2179
v  26.3253 43.8458 20.2179
v  26.3253 33.2923 -20.5101
v  -24.7837 31.9141 20.2179
v  24.6752 31.9141 20.2179
v  24.6752 18.0416 20.2179
v  -26.3253 33.2923 -20.5101
v  -26.3253 43.8458 -20.5101
v  26.3253 43.8458 -20.5101
v  -24.7837 18.0416 20.2179
v  16.4368 2.1124 18.3404
v  16.4368 2.2048 -18.3902
v  16.4368 0.5864 -20.0649
v  16.4368 0.4940 20.2020
v  19.3138 2.1124 18.3404
v  19.3138 0.4940 20.2020
v  19.3138 0.4940 -20.0649
v  19.3138 2.1124 -18.3902
v  16.4368 15.0637 -18.3902
v  16.4368 16.9646 -20.0649
v  19.3138 14.9713 -18.3902
v  19.3138 14.9713 18.3404
v  19.3138 16.8722 20.2020
v  16.4368 14.9713 18.3404
v  16.4368 16.8722 20.2020
v  19.3138 16.8722 -20.0649
v  7.1489 35.7783 19.6096
v  6.0965 35.7783 19.6096
v  6.0965 36.8980 19.6096
v  7.1489 36.8980 19.6096
v  7.1489 35.7783 21.9103
v  6.0965 35.7783 20.9529
v  6.0965 36.8980 20.9529
v  7.1489 36.8980 21.9103
v  -7.1349 35.7783 21.9103
v  -6.0825 35.7783 20.9529
v  -16.4045 2.1124 18.3901
v  -16.4045 0.4940 20.1149
v  -16.4045 0.4940 -20.0625
v  -16.4045 2.1124 -18.4201
v  -19.2116 2.1124 18.3901
v  -19.2116 2.1124 -18.4201
v  -19.2116 0.4940 -20.0625
v  -19.2116 0.4940 20.1149
v  -16.4045 16.8722 -20.0625
v  -16.4045 15.1124 -18.4201
v  -19.2116 15.1124 -18.4201
v  -19.2116 16.8722 20.1149
v  -19.2116 15.1124 18.3901
v  -16.4045 15.1124 18.3901
v  -16.4045 16.8722 20.1149
v  -19.2116 16.8722 -20.0625
v  -7.1349 35.7783 19.6096
v  -7.1349 36.8980 19.6096
v  -6.0825 36.8980 19.6096
v  -6.0825 35.7783 19.6096
v  -6.0825 36.8980 20.9529
v  -7.1349 36.8980 21.9103
# 68 vertices

vn 0.0000 -1.0000 -0.0000
vn 0.0000 0.0000 1.0000
vn 1.0000 0.0000 -0.0000
vn -1.0000 0.0000 -0.0000
vn 0.0000 0.0000 -1.0000
vn 0.0000 1.0000 -0.0000
vn 0.0161 0.9999 0.0013
vn -0.0161 -0.9999 -0.0013
vn 1.0000 0.0000 0.0000
vn -1.0000 0.0000 0.0000
# 10 vertex normals

vt 0.1606 0.7837 0.0000
vt 0.1606 0.5492 0.0000
vt 0.4609 0.5492 0.0000
vt 0.4609 0.7837 0.0000
vt 0.6944 0.4104 0.0000
vt 0.7759 0.4104 0.0000
vt 0.7759 0.6984 0.0000
vt 0.6944 0.6984 0.0000
vt 0.1606 0.1589 0.0000
vt 0.1606 0.0981 0.0000
vt 0.4609 0.0981 0.0000
vt 0.4609 0.1589 0.0000
vt 0.5217 0.3934 0.0000
vt 0.5217 0.1589 0.0000
vt 0.6167 0.1589 0.0000
vt 0.6167 0.3934 0.0000
vt 0.4721 0.4104 0.0000
vt 0.4721 0.6984 0.0000
vt 0.9982 0.6984 0.0000
vt 0.9982 0.7799 0.0000
vt 0.7759 0.7799 0.0000
vt 0.4609 0.4541 0.0000
vt 0.1606 0.4541 0.0000
vt 0.1606 0.3934 0.0000
vt 0.4609 0.3934 0.0000
vt 0.9982 0.4104 0.0000
vt 0.0048 0.1589 0.0000
vt 0.0998 0.1589 0.0000
vt 0.0998 0.3934 0.0000
vt 0.0048 0.3934 0.0000
vt 0.7759 0.3289 0.0000
vt 0.9982 0.3289 0.0000
vt 0.4547 0.0099 0.0000
vt 0.1668 0.0099 0.0000
vt 0.1606 0.0030 0.0000
vt 0.4609 0.0030 0.0000
vt 0.1668 0.0915 0.0000
vt 0.4547 0.0915 0.0000
vt 0.4651 0.8097 0.0000
vt 0.2680 0.8097 0.0000
vt 0.2591 0.8010 0.0000
vt 0.4751 0.8011 0.0000
vt 0.0376 0.8094 0.0000
vt 0.0276 0.8007 0.0000
vt 0.2436 0.8005 0.0000
vt 0.2347 0.8092 0.0000
vt 0.4651 0.8252 0.0000
vt 0.2680 0.8252 0.0000
vt 0.2681 0.8787 0.0000
vt 0.2591 0.8889 0.0000
vt 0.2347 0.8782 0.0000
vt 0.2192 0.8787 0.0000
vt 0.2192 0.8097 0.0000
vt 0.0376 0.8784 0.0000
vt 0.0276 0.8886 0.0000
vt 0.0530 0.8094 0.0000
vt 0.0530 0.8784 0.0000
vt 0.4651 0.8787 0.0000
vt 0.4751 0.8889 0.0000
vt 0.2436 0.8884 0.0000
vt 0.2681 0.8633 0.0000
vt 0.4651 0.8633 0.0000
vt 0.0122 0.8886 0.0000
vt 0.0122 0.8007 0.0000
vt 0.0668 0.8599 0.0000
vt 0.0724 0.8599 0.0000
vt 0.0724 0.8659 0.0000
vt 0.0667 0.8659 0.0000
vt 0.0668 0.8476 0.0000
vt 0.0724 0.8527 0.0000
vt 0.0796 0.8599 0.0000
vt 0.0796 0.8659 0.0000
vt 0.0724 0.8364 0.0000
vt 0.0668 0.8416 0.0000
vt 0.0668 0.8292 0.0000
vt 0.0724 0.8292 0.0000
vt 0.0544 0.8476 0.0000
vt 0.0544 0.8416 0.0000
vt 0.1434 0.8476 0.0000
vt 0.1377 0.8527 0.0000
vt 0.2352 0.9737 0.0000
vt 0.2445 0.9824 0.0000
vt 0.0290 0.9824 0.0000
vt 0.0378 0.9737 0.0000
vt 0.2688 0.9737 0.0000
vt 0.4663 0.9737 0.0000
vt 0.4751 0.9824 0.0000
vt 0.2596 0.9824 0.0000
vt 0.4663 0.9587 0.0000
vt 0.2688 0.9587 0.0000
vt 0.0290 0.8946 0.0000
vt 0.0378 0.9040 0.0000
vt 0.0528 0.9737 0.0000
vt 0.0528 0.9040 0.0000
vt 0.2596 0.8946 0.0000
vt 0.2688 0.9040 0.0000
vt 0.2202 0.9737 0.0000
vt 0.2202 0.9040 0.0000
vt 0.2352 0.9040 0.0000
vt 0.2445 0.8946 0.0000
vt 0.4751 0.8946 0.0000
vt 0.4663 0.9040 0.0000
vt 0.4663 0.9191 0.0000
vt 0.2688 0.9191 0.0000
vt 0.0139 0.9824 0.0000
vt 0.0139 0.8946 0.0000
vt 0.1434 0.8599 0.0000
vt 0.1434 0.8659 0.0000
vt 0.1377 0.8659 0.0000
vt 0.1377 0.8599 0.0000
vt 0.1377 0.8587 0.0000
vt 0.0724 0.8587 0.0000
vt 0.1305 0.8599 0.0000
vt 0.1305 0.8659 0.0000
vt 0.1377 0.8364 0.0000
vt 0.1377 0.8292 0.0000
vt 0.1434 0.8292 0.0000
vt 0.1434 0.8416 0.0000
vt 0.1557 0.8416 -0.0000
vt 0.1557 0.8476 -0.0000
# 120 texture coords

o Side_Table
g Side_Table
usemtl wire_154185229
s off
f 1/1/1 2/2/1 3/3/1 
f 3/3/1 4/4/1 1/1/1 
f 5/5/2 6/6/2 7/7/2 
f 7/7/2 8/8/2 5/5/2 
f 9/9/2 10/10/2 11/11/2 
f 11/11/2 12/12/2 9/9/2 
f 13/13/3 11/14/3 4/15/3 
f 4/15/3 3/16/3 13/13/3 
f 14/17/1 5/5/1 8/8/1 
f 8/8/1 15/18/1 14/17/1 
f 16/19/4 15/20/4 8/21/4 
f 8/21/4 7/7/4 16/19/4 
f 13/22/5 17/23/5 18/24/5 
f 18/24/5 19/25/5 13/22/5 
f 12/12/6 19/25/6 18/24/6 
f 18/24/6 9/9/6 12/12/6 
f 16/19/6 7/7/6 6/6/6 
f 6/6/6 20/26/6 16/19/6 
f 1/27/4 10/28/4 17/29/4 
f 17/29/4 2/30/4 1/27/4 
f 20/26/3 6/6/3 5/31/3 
f 5/31/3 14/32/3 20/26/3 
f 16/33/2 20/34/2 1/35/2 
f 1/35/2 4/36/2 16/33/2 
f 19/25/3 12/12/3 11/14/3 
f 11/14/3 13/13/3 19/25/3 
f 3/3/5 2/2/5 17/23/5 
f 17/23/5 13/22/5 3/3/5 
f 9/9/4 18/24/4 17/29/4 
f 17/29/4 10/28/4 9/9/4 
f 10/10/2 1/35/2 20/34/2 
f 20/34/2 14/37/2 10/10/2 
f 14/37/2 15/38/2 11/11/2 
f 11/11/2 10/10/2 14/37/2 
f 11/11/2 15/38/2 16/33/2 
f 16/33/2 4/36/2 11/11/2 
s 2
f 21/39/4 22/40/4 23/41/4 
f 23/41/4 24/42/4 21/39/4 
s 4
f 25/43/3 26/44/3 27/45/3 
f 27/45/3 28/46/3 25/43/3 
s 64
f 22/40/7 21/39/7 25/47/7 
f 25/47/7 28/48/7 22/40/7 
s off
f 22/40/4 29/49/4 30/50/4 
f 30/50/4 23/41/4 22/40/4 
f 28/46/2 31/51/2 29/52/2 
f 29/52/2 22/53/2 28/46/2 
f 26/44/3 25/43/3 32/54/3 
f 32/54/3 33/55/3 26/44/3 
f 21/56/5 34/57/5 32/54/5 
f 32/54/5 25/43/5 21/56/5 
s 2
f 34/58/4 35/59/4 30/50/4 
f 30/50/4 29/49/4 34/58/4 
s 4
f 32/54/3 31/51/3 36/60/3 
f 36/60/3 33/55/3 32/54/3 
s 64
f 29/49/8 31/61/8 32/62/8 
f 32/62/8 34/58/8 29/49/8 
s off
f 31/51/3 28/46/3 27/45/3 
f 27/45/3 36/60/3 31/51/3 
f 27/45/5 23/41/5 30/50/5 
f 30/50/5 36/60/5 27/45/5 
f 21/39/4 24/42/4 35/59/4 
f 35/59/4 34/58/4 21/39/4 
f 35/63/2 24/64/2 26/44/2 
f 26/44/2 33/55/2 35/63/2 
s 64
f 37/65/5 38/66/5 39/67/5 
f 39/67/5 40/68/5 37/65/5 
s off
f 41/69/1 42/70/1 38/66/1 
f 38/66/1 37/65/1 41/69/1 
f 42/71/4 43/72/4 39/67/4 
f 39/67/4 38/66/4 42/71/4 
f 43/73/6 44/74/6 40/75/6 
f 40/75/6 39/76/6 43/73/6 
f 44/74/9 41/69/9 37/77/9 
f 37/77/9 40/78/9 44/74/9 
s 2
f 42/70/1 41/69/1 45/79/1 
f 45/79/1 46/80/1 42/70/1 
f 47/81/3 48/82/3 49/83/3 
f 49/83/3 50/84/3 47/81/3 
s 4
f 51/85/4 52/86/4 53/87/4 
f 53/87/4 54/88/4 51/85/4 
s 64
f 50/89/6 52/86/6 51/85/6 
f 51/85/6 47/90/6 50/89/6 
s off
f 50/84/3 49/83/3 55/91/3 
f 55/91/3 56/92/3 50/84/3 
f 52/93/2 50/84/2 56/92/2 
f 56/92/2 57/94/2 52/93/2 
f 54/88/4 58/95/4 59/96/4 
f 59/96/4 51/85/4 54/88/4 
f 47/81/5 51/97/5 59/98/5 
f 59/98/5 60/99/5 47/81/5 
s 2
f 60/99/3 56/92/3 55/91/3 
f 55/91/3 61/100/3 60/99/3 
s 4
f 59/96/4 58/95/4 62/101/4 
f 62/101/4 57/102/4 59/96/4 
s 64
f 56/103/1 60/104/1 59/96/1 
f 59/96/1 57/102/1 56/103/1 
s off
f 57/102/4 62/101/4 53/87/4 
f 53/87/4 52/86/4 57/102/4 
f 53/105/5 62/106/5 55/91/5 
f 55/91/5 49/83/5 53/105/5 
f 47/81/3 60/99/3 61/100/3 
f 61/100/3 48/82/3 47/81/3 
f 61/100/2 58/95/2 54/88/2 
f 54/88/2 48/82/2 61/100/2 
s 64
f 63/107/5 64/108/5 65/109/5 
f 65/109/5 66/110/5 63/107/5 
f 46/80/5 67/111/5 43/112/5 
f 43/112/5 42/70/5 46/80/5 
s off
f 45/79/1 63/107/1 66/110/1 
f 66/110/1 46/80/1 45/79/1 
f 46/113/3 66/110/3 65/109/3 
f 65/109/3 67/114/3 46/113/3 
f 67/115/6 65/116/6 64/117/6 
f 64/117/6 68/118/6 67/115/6 
f 68/118/10 64/119/10 63/120/10 
f 63/120/10 45/79/10 68/118/10 
s 4
f 43/73/6 67/115/6 68/118/6 
f 68/118/6 44/74/6 43/73/6 
s 16
f 44/74/2 68/118/2 45/79/2 
f 45/79/2 41/69/2 44/74/2 
# 120 faces

